<?xml version="1.0" standalone="no"?>
<!DOCTYPE svg PUBLIC "-//W3C//DTD SVG 20010904//EN"
 "http://www.w3.org/TR/2001/REC-SVG-20010904/DTD/svg10.dtd">
<svg version="1.0" xmlns="http://www.w3.org/2000/svg"
 width="1280.000000pt" height="1280.000000pt" viewBox="0 0 1280.000000 1280.000000"
 preserveAspectRatio="xMidYMid meet">
<metadata>
Created by potrace 1.11, written by Peter Selinger 2001-2013
</metadata>
<g transform="translate(0.000000,1280.000000) scale(0.100000,-0.100000)"
fill="#000000" stroke="none">
<path d="M6040 12533 c-651 -45 -1265 -177 -1835 -393 -852 -325 -1663 -871
-2284 -1540 -167 -181 -177 -192 -293 -335 -776 -960 -1236 -2105 -1343 -3345
-69 -803 28 -1630 281 -2410 258 -797 680 -1534 1243 -2170 121 -137 425 -438
572 -565 925 -807 2095 -1321 3319 -1459 368 -41 968 -47 1290 -12 817 90
1511 293 2195 645 718 369 1338 858 1869 1476 260 303 508 659 699 1004 639
1154 889 2457 722 3766 -153 1200 -658 2321 -1461 3245 -142 163 -415 437
-579 581 -1012 888 -2271 1411 -3630 1509 -126 9 -651 11 -765 3z m776 -173
c461 -36 874 -112 1325 -246 132 -39 469 -160 483 -174 5 -5 -10 -13 -35 -20
-197 -51 -756 -223 -984 -303 -349 -122 -871 -330 -1110 -441 l-99 -47 -86 40
c-282 130 -823 345 -1155 458 -296 100 -743 238 -954 293 -26 7 -40 15 -34 21
5 5 74 33 153 62 508 189 1069 311 1630 356 152 12 715 13 866 1z m-2729 -621
c522 -170 1014 -360 1498 -579 143 -64 425 -203 425 -209 0 -3 -78 -46 -173
-94 l-172 -88 -125 66 c-527 279 -1159 554 -1745 760 -104 36 -193 69 -199 72
-8 5 245 141 266 142 4 1 105 -31 225 -70z m4978 4 c74 -37 135 -70 135 -74 0
-3 -26 -13 -57 -23 -166 -52 -616 -223 -918 -349 -275 -115 -787 -358 -1028
-488 l-78 -42 -37 22 c-20 12 -97 52 -169 89 -73 37 -133 69 -133 73 0 12 486
240 725 341 398 168 731 293 1080 408 138 45 268 88 290 95 22 7 43 14 47 14
4 1 69 -29 143 -66z m563 -322 c132 -87 136 -90 110 -100 -173 -66 -488 -210
-808 -370 -384 -193 -649 -340 -975 -542 l-110 -68 -30 20 c-16 10 -94 58
-173 106 -80 48 -139 90 -134 95 56 56 967 522 1317 674 139 60 646 269 663
273 2 1 65 -39 140 -88z m-6107 -1 c419 -168 683 -286 1099 -496 249 -125 638
-338 663 -363 4 -4 -25 -28 -65 -51 -40 -24 -116 -70 -168 -102 -52 -32 -100
-58 -106 -58 -7 0 -50 23 -96 52 -342 212 -667 391 -1058 584 -221 110 -630
296 -712 325 -21 7 -38 17 -38 21 0 14 240 168 261 168 11 0 110 -36 220 -80z
m-346 -500 c311 -157 667 -356 923 -516 235 -147 461 -299 462 -309 0 -5 -42
-39 -93 -75 -701 -492 -1418 -1153 -1988 -1836 -338 -405 -670 -874 -936
-1324 -337 -568 -630 -1184 -869 -1824 -35 -95 -49 -124 -55 -109 -16 43 -70
299 -98 463 -266 1556 80 3126 971 4415 311 450 743 914 1156 1243 l102 82 58
-27 c31 -15 197 -97 367 -183z m6891 192 c10 -9 41 -35 69 -57 221 -177 525
-468 731 -700 557 -626 991 -1404 1234 -2211 85 -281 141 -526 190 -824 93
-576 91 -1296 -6 -1860 -42 -239 -116 -574 -159 -710 -7 -25 -33 -106 -56
-180 -289 -931 -877 -1848 -1633 -2548 -931 -862 -2155 -1417 -3410 -1547
-1104 -114 -2176 69 -3188 542 l-78 37 0 164 c0 319 55 1102 95 1362 8 52 19
142 25 200 24 241 143 897 231 1275 84 365 281 1012 404 1325 219 562 431
1015 683 1454 260 456 506 818 845 1244 108 136 330 397 346 406 12 8 174
-177 355 -404 393 -493 680 -927 976 -1477 51 -95 95 -173 99 -173 3 0 14 12
23 28 20 31 103 148 277 391 l124 172 -23 42 c-33 59 -247 379 -348 522 -265
371 -576 746 -940 1131 l-162 173 132 129 c73 71 152 146 176 167 l42 37 77
-68 c43 -38 170 -161 283 -274 596 -596 1123 -1280 1543 -2006 87 -150 206
-323 224 -323 7 -1 17 7 22 17 6 11 91 132 191 271 99 138 180 257 180 264 0
26 -267 420 -449 662 -365 485 -785 952 -1226 1365 -111 104 -411 367 -440
386 -14 9 -25 21 -25 28 1 10 318 266 340 274 14 5 278 -200 485 -377 617
-528 1166 -1121 1615 -1745 l64 -88 21 24 c11 14 69 93 128 177 60 83 112 149
117 146 7 -5 101 -134 275 -380 202 -286 389 -545 394 -545 3 0 29 33 57 73
43 60 50 75 41 92 -21 42 -214 324 -321 471 -188 258 -397 515 -644 794 -160
181 -581 607 -732 741 -372 332 -622 535 -955 774 -83 59 -150 112 -150 119 0
9 295 210 488 330 97 61 405 239 587 339 146 80 716 366 731 367 3 0 14 -8 25
-18z m-3509 -446 c211 -121 200 -105 112 -156 -41 -24 -117 -70 -169 -103 -52
-33 -99 -60 -105 -60 -8 0 -330 195 -343 207 -2 2 50 36 115 74 173 102 206
120 225 121 9 1 83 -37 165 -83z m-544 -566 c4 -4 -71 -64 -168 -133 l-177
-127 -161 117 c-89 64 -168 122 -175 128 -13 12 49 58 267 197 l73 47 167
-111 c91 -61 170 -114 174 -118z m1282 114 c88 -58 164 -109 168 -114 5 -4
-22 -29 -60 -56 -37 -26 -116 -83 -175 -127 l-107 -78 -169 123 c-93 68 -170
127 -171 132 -3 11 319 226 339 226 8 0 87 -48 175 -106z m-2305 -425 c94 -68
295 -233 297 -243 1 -6 -23 -31 -54 -56 -217 -173 -714 -646 -955 -910 -454
-496 -810 -962 -1160 -1515 -254 -403 -596 -1060 -782 -1502 -258 -614 -458
-1217 -604 -1823 -12 -47 -38 -152 -58 -235 -20 -82 -55 -241 -78 -353 -23
-112 -46 -203 -51 -204 -30 -3 -425 641 -425 693 0 38 109 511 165 717 445
1640 1180 3000 2274 4212 220 242 581 592 870 840 143 122 502 410 512 410 3
0 25 -14 49 -31z m1473 -16 c150 -115 276 -219 276 -228 0 -5 -59 -59 -130
-120 -71 -60 -149 -127 -172 -147 l-43 -37 -149 131 c-83 71 -160 137 -173
145 -13 9 -22 22 -20 29 3 13 327 273 341 274 4 0 36 -21 70 -47z m-614 -720
l171 -168 -116 -120 c-612 -632 -1123 -1315 -1556 -2075 -791 -1388 -1295
-3006 -1503 -4829 -14 -118 -27 -216 -29 -219 -9 -8 -225 168 -424 345 l-44
39 16 186 c18 207 68 628 92 783 208 1319 521 2332 1049 3385 460 920 1047
1736 1785 2481 148 149 370 359 380 359 4 0 85 -75 179 -167z"/>
<path d="M11288 6299 c-143 -50 -228 -195 -228 -390 0 -196 82 -329 252 -409
245 -114 531 -57 657 131 107 160 117 370 27 555 -53 109 -38 101 -235 119
-96 8 -176 13 -177 12 -2 -1 -10 -90 -19 -196 -18 -217 -20 -211 52 -211 40 0
41 1 47 38 3 20 8 82 12 136 l7 99 90 -7 c101 -7 103 -8 139 -96 18 -45 22
-75 23 -160 0 -95 -3 -110 -28 -162 -63 -128 -156 -181 -322 -182 -146 -1
-256 35 -331 111 -76 76 -103 204 -69 331 23 84 84 151 158 171 26 8 49 17 51
20 2 3 -1 30 -6 59 -12 60 -15 60 -100 31z"/>
<path d="M10980 5274 c-11 -36 -20 -73 -20 -81 0 -9 68 -143 151 -300 83 -156
149 -286 147 -288 -2 -2 -102 27 -222 65 -121 39 -220 70 -222 70 -10 0 -36
-112 -28 -119 8 -8 211 -74 444 -146 41 -13 161 -50 267 -84 105 -34 194 -61
197 -61 9 0 38 109 32 119 -3 5 -18 12 -33 15 -16 4 -84 25 -153 48 l-126 40
-46 91 c-26 51 -44 95 -40 98 4 4 84 31 177 60 94 28 217 66 275 84 l105 33
22 73 c12 40 21 75 19 77 -2 2 -149 -44 -327 -102 -177 -58 -327 -106 -333
-106 -6 0 -65 108 -131 240 -66 132 -123 240 -127 240 -4 0 -16 -30 -28 -66z"/>
<path d="M10406 3928 c-246 -346 -336 -477 -336 -486 0 -5 18 -22 40 -37 48
-33 47 -34 123 77 31 46 67 96 81 113 l24 29 38 -26 c22 -14 176 -123 344
-242 168 -118 308 -216 311 -216 6 0 69 88 69 98 0 4 -53 44 -118 89 -302 211
-548 385 -559 396 -9 9 8 40 73 131 46 66 84 125 84 130 0 9 -54 51 -81 64 -3
1 -45 -53 -93 -120z"/>
<path d="M11365 3940 c-14 -27 -25 -53 -25 -58 0 -4 25 -20 57 -36 44 -22 58
-25 65 -14 18 27 48 88 48 97 0 11 -91 61 -109 61 -6 0 -22 -22 -36 -50z"/>
<path d="M9682 3052 c-23 -20 -42 -43 -42 -50 0 -7 61 -160 136 -340 75 -180
161 -385 191 -457 30 -71 58 -134 64 -140 6 -6 25 7 53 35 l44 45 -59 135
c-33 74 -58 140 -57 146 2 6 66 70 142 142 l139 131 140 -70 140 -71 48 48
c27 27 46 51 41 55 -16 16 -909 429 -927 429 -5 0 -29 -17 -53 -38z m297 -197
c110 -55 201 -105 201 -112 0 -6 -15 -23 -32 -38 -18 -15 -65 -58 -104 -96
-40 -38 -76 -69 -81 -69 -6 0 -20 24 -31 53 -38 96 -120 277 -147 324 -15 25
-23 44 -17 42 5 -2 100 -49 211 -104z"/>
<path d="M9170 2635 c-63 -40 -200 -125 -305 -190 -104 -65 -192 -119 -194
-121 -6 -5 31 -73 46 -85 14 -12 23 -8 160 77 55 35 105 64 110 64 5 0 39 -51
77 -112 37 -62 94 -156 127 -208 32 -52 100 -161 150 -242 50 -82 96 -148 101
-148 13 0 98 53 98 60 0 3 -57 98 -126 210 -288 466 -315 513 -302 521 7 4 60
37 118 73 58 36 111 69 119 74 12 7 9 16 -13 55 -16 26 -33 47 -39 46 -7 0
-64 -33 -127 -74z"/>
<path d="M8200 2156 c-125 -35 -234 -124 -265 -215 -46 -138 30 -279 167 -311
50 -12 67 -12 348 6 86 6 100 4 139 -15 46 -24 71 -66 71 -121 0 -103 -142
-200 -293 -200 -90 0 -145 25 -189 86 -17 24 -33 44 -35 44 -2 0 -26 -11 -53
-25 l-50 -25 19 -38 c67 -130 217 -193 378 -158 144 30 256 102 308 197 25 46
29 65 30 129 0 65 -4 82 -30 130 -57 103 -140 137 -314 126 -305 -19 -296 -19
-329 -2 -64 33 -79 120 -33 185 26 37 127 87 200 101 88 16 152 -12 202 -89
l15 -23 51 25 c61 31 61 44 0 113 -59 67 -123 94 -217 93 -41 0 -95 -6 -120
-13z"/>
</g>
</svg>
